<svg width="32" height="32" viewBox="0 0 32 32" fill="none" xmlns="http://www.w3.org/2000/svg">
<g clip-path="url(#clip0_2_2)">
<path d="M31.5835 16.4165V15.5835C31.5835 6.97696 24.6065 0 16 0C7.39349 0 0.416534 6.97696 0.416534 15.5835V16.4165C0.416534 25.023 7.39349 32 16 32C24.6065 32 31.5835 25.023 31.5835 16.4165Z" fill="#F0EAE0"/>
<path fill-rule="evenodd" clip-rule="evenodd" d="M14.5789 1.03401C11.5749 1.35254 8.99234 2.46494 6.60092 4.47903C6.18438 4.82696 5.3807 5.64044 4.99357 6.10108C2.63645 8.89925 1.39663 12.3198 1.39663 16.0245C1.39663 17.7201 1.66615 19.347 2.2003 20.9054C3.51853 24.7375 6.15008 27.766 9.70291 29.54C11.6337 30.5054 13.4371 30.9464 15.7305 31.0052C17.4848 31.0493 18.857 30.8484 20.4839 30.3094C22.2285 29.7262 24.0172 28.7118 25.3844 27.521C26.9035 26.2028 28.0257 24.7522 28.9617 22.9097C29.7556 21.3513 30.1819 19.9792 30.4907 18.0337C30.5985 17.3329 30.6181 14.8484 30.5152 14.1378C30.1574 11.6239 29.393 9.5118 28.1384 7.60552C27.6925 6.92436 27.6484 6.86556 27.0211 6.11088C26.6242 5.63554 25.5755 4.58684 25.3452 4.43493C25.1786 4.32712 25.2521 4.26341 24.5317 5.1602C24.0809 5.72865 24.0024 5.85606 24.0466 5.91977C24.0809 5.96877 24.2916 6.17949 24.5219 6.39511C25.11 6.93906 25.7421 7.67413 26.3106 8.47291C26.5017 8.74733 27.1436 9.84503 27.2858 10.1489C27.5847 10.7908 27.6974 11.0702 27.8836 11.6141C28.6383 13.7948 28.8098 15.9853 28.4178 18.3767C28.3786 18.6316 28.31 18.9501 28.2708 19.0873C28.011 19.9988 27.9326 20.2585 27.8003 20.6309C27.6043 21.1847 27.0015 22.4098 26.6634 22.9489C25.9381 24.1054 24.7963 25.3942 23.7917 26.2028C21.7972 27.8101 19.4499 28.7559 16.9507 28.9666C14.2162 29.197 11.2123 28.3639 8.95804 26.7467C8.08576 26.1146 7.90444 25.9626 7.25268 25.3109C6.07657 24.1348 5.3072 23.0518 4.60643 21.5816C4.08698 20.4937 3.66554 19.0432 3.50383 17.8132C3.2441 15.7795 3.42542 13.7703 4.04778 11.8248C4.66034 9.90874 5.90015 7.93876 7.38989 6.50292C8.96784 4.97888 10.879 3.89588 12.849 3.40583C14.1868 3.0726 15.1522 2.95989 16.392 3.00399C17.328 3.0383 17.9357 3.1216 18.7688 3.31762C19.6165 3.52344 19.5871 3.52834 19.989 3.0334C20.1801 2.79817 20.4692 2.45024 20.626 2.25912C20.8123 2.0337 20.9005 1.89159 20.8662 1.85729C20.7485 1.73967 19.4989 1.36724 18.7443 1.22513C17.8034 1.04871 16.9997 0.980103 15.951 0.985004C15.3972 0.989904 14.7798 1.00951 14.5789 1.03401Z" fill="#2E2A25"/>
<path fill-rule="evenodd" clip-rule="evenodd" d="M22.0766 2.612C21.8953 2.83742 20.724 4.28795 20.2634 4.85151C20.1164 5.03282 19.5528 5.71889 19.0138 6.37065C18.4747 7.02241 17.823 7.81628 17.5681 8.12991C15.6423 10.5115 14.476 11.9376 12.0551 14.8974L11.3201 15.7942L11.3054 11.6435L11.2956 7.49775H11.1044C10.7026 7.49775 9.78132 7.74278 9.33538 7.9633C9.21286 8.027 9.06095 8.13481 8.99234 8.20832L8.86983 8.34063L8.85513 16.0785L8.84533 23.8163H10.0704H11.2956V21.5572V19.2981L11.7415 18.7492C11.9865 18.4503 12.3688 17.9798 12.5942 17.7054L13.0009 17.2056L13.6037 18.0239C13.932 18.4748 14.3632 19.0628 14.5642 19.3324C16.3822 21.8218 17.1761 22.8901 17.2496 22.9489C17.2839 22.9783 20.0282 22.9685 20.1017 22.9391C20.1115 22.9342 20.0821 22.895 20.0429 22.846C19.9694 22.7578 19.7489 22.4589 18.1317 20.2635C16.0392 17.4212 15.6227 16.8576 15.0836 16.1422C14.7798 15.7305 14.5299 15.3875 14.5299 15.3679C14.5299 15.3532 14.6475 15.2013 14.7896 15.0347C14.9317 14.8631 15.6325 14.0105 16.343 13.1333C17.823 11.3103 18.0631 11.0163 19.2931 9.50694C19.7881 8.89928 20.2438 8.33573 20.3124 8.25242C20.381 8.16912 20.6554 7.83098 20.925 7.49775C21.1945 7.16452 21.6796 6.57157 22.0031 6.16973C22.3265 5.77279 22.8998 5.06713 23.2772 4.60648C23.6545 4.14584 24.0024 3.7146 24.0564 3.65089C24.1054 3.59209 24.1348 3.51858 24.1152 3.48918C24.0564 3.39117 22.3706 2.40128 22.2677 2.40128C22.253 2.40128 22.1697 2.49928 22.0766 2.612Z" fill="#2E2A25"/>
<path fill-rule="evenodd" clip-rule="evenodd" d="M20.7044 11.8346V14.5053H18.8472H16.9899L16.8527 14.667C16.7743 14.7553 16.5831 14.9954 16.4263 15.2012L16.1372 15.5785L16.4949 16.1176L16.8478 16.6615H18.7786H20.7044V20.6064V24.5513H21.9296H23.1547V16.8575V9.16383H21.9296H20.7044V11.8346Z" fill="#2E2A25"/>
</g>
<defs>
<clipPath id="clip0_2_2">
<rect width="32" height="32" fill="white"/>
</clipPath>
</defs>
</svg>
